<svg height="512pt" viewBox="0 0 512 512" width="512pt" xmlns="http://www.w3.org/2000/svg"><path d="m512 409.601562-190.683594-20.015624 20.019532 122.414062h170.664062zm0 0" fill="#d10050"/><path d="m150.652344 389.585938 20.015625 122.414062h170.667969v-122.414062zm0 0" fill="#ff4a4a"/><path d="m0 409.601562v102.398438h170.667969v-122.414062zm0 0" fill="#ff9f22"/><path d="m512 307.199219-105.347656-20.015625 20.015625 122.417968h85.332031zm0 0" fill="#ff4a4a"/><path d="m235.984375 287.183594 20.015625 122.417968h170.667969v-122.417968zm0 0" fill="#ff9f22"/><path d="m65.316406 287.183594 20.019532 122.417968h170.664062v-122.417968zm0 0" fill="#d10050"/><path d="m0 307.199219v102.402343h85.335938v-122.417968zm0 0" fill="#ff4a4a"/><path d="m512 204.800781-190.683594-20.015625 20.015625 122.414063h170.667969zm0 0" fill="#d10050"/><path d="m150.652344 184.785156 20.015625 122.414063h170.664062v-122.414063zm0 0" fill="#ff4a4a"/><path d="m0 204.800781v102.398438h170.667969v-122.414063zm0 0" fill="#ff9f22"/><path d="m512 102.398438-105.347656-20.015626 20.015625 122.417969h85.332031zm0 0" fill="#ff4a4a"/><path d="m235.984375 82.382812 20.015625 122.417969h170.667969v-122.417969zm0 0" fill="#ff9f22"/><path d="m65.316406 82.382812 20.019532 122.417969h170.664062v-122.417969zm0 0" fill="#d10050"/><path d="m0 102.398438v102.402343h85.335938v-122.417969zm0 0" fill="#ff4a4a"/><path d="m512 0h-170.664062l-20.019532 51.199219 20.019532 51.199219h170.664062zm0 0" fill="#d10050"/><path d="m170.667969 0-20.015625 51.199219 20.015625 51.199219h170.667969v-102.398438zm0 0" fill="#ff4a4a"/><path d="m0 0h170.667969v102.398438h-170.667969zm0 0" fill="#ff9f22"/></svg>