<svg height="512pt" viewBox="-74 0 512 512" width="512pt" xmlns="http://www.w3.org/2000/svg"><path d="m181.925781 0-10.007812 15 10.007812 15c50.769531 0 92.078125 41.308594 92.078125 92.078125v124.03125h30v-124.03125c0-67.3125-54.765625-122.078125-122.078125-122.078125zm0 0" fill="#b4d2d7"/><path d="m59.847656 122.078125v124.03125h30v-124.03125c0-50.769531 41.304688-92.078125 92.078125-92.078125v-30c-67.316406 0-122.078125 54.765625-122.078125 122.078125zm0 0" fill="#e1ebf0"/><path d="m181.925781 148.148438-20.679687 178.648437 20.679687 185.203125c100.472657 0 181.925781-81.449219 181.925781-181.925781 0-100.472657-81.453124-181.925781-181.925781-181.925781zm0 0" fill="#ff9f22"/><path d="m0 330.074219c0 100.476562 81.449219 181.925781 181.925781 181.925781v-363.851562c-100.476562 0-181.925781 81.453124-181.925781 181.925781zm0 0" fill="#ffd422"/><path d="m181.925781 197.753906-20.679687 132.320313 20.679687 132.324219c72.960938 0 132.320313-59.359376 132.320313-132.324219 0-72.960938-59.359375-132.320313-132.320313-132.320313zm0 0" fill="#b4d2d7"/><path d="m49.601562 330.074219c0 72.964843 59.359376 132.324219 132.324219 132.324219v-264.644532c-72.964843 0-132.324219 59.359375-132.324219 132.320313zm0 0" fill="#e1ebf0"/><path d="m166.925781 335.101562h30v56.445313h-30zm0 0" fill="#03232e"/><path d="m181.925781 268.601562-20.015625 41.996094 20.015625 41.996094c23.191407 0 41.996094-18.800781 41.996094-41.996094 0-23.191406-18.804687-41.996094-41.996094-41.996094zm0 0" fill="#03232e"/><path d="m139.929688 310.597656c0 23.195313 18.800781 41.996094 41.996093 41.996094v-83.992188c-23.195312 0-41.996093 18.804688-41.996093 41.996094zm0 0" fill="#07485e"/></svg>