<svg height="512pt" viewBox="0 0 512 512" width="512pt" xmlns="http://www.w3.org/2000/svg"><path d="m286.023438 255.191406-50.039063-20.015625 20.015625 213.574219h30.023438zm0 0" fill="#07485e"/><path d="m225.976562 255.191406v193.558594h30.023438v-213.574219zm0 0" fill="#0b799d"/><path d="m256 255.140625h256v-127.570313l-276.015625-20.015624zm0 0" fill="#03232e"/><path d="m0 127.570312v127.570313h256v-147.585937zm0 0" fill="#07485e"/><path d="m256 0-20.015625 63.785156 20.015625 63.785156h256v-127.570312zm0 0" fill="#07485e"/><path d="m0 0h256v127.570312h-256zm0 0" fill="#0b799d"/><path d="m84.445312 406.734375-21.214843-21.214844-63.230469 63.234375 63.230469 63.226563 21.214843-21.210938-27.019531-27.015625h181.617188v-30h-181.617188zm0 0" fill="#ff4a4a"/><path d="m448.769531 385.519531-21.214843 21.214844 27.019531 27.019531h-184.242188v30h184.242188l-27.019531 27.015625 21.214843 21.210938 63.230469-63.226563zm0 0" fill="#d10050"/><g fill="#e1ebf0"><path d="m47.839844 48.785156h31.890625v30h-31.890625zm0 0"/><path d="m111.625 48.785156h31.894531v30h-31.894531zm0 0"/><path d="m47.839844 176.355469h31.890625v30h-31.890625zm0 0"/><path d="m111.625 176.355469h31.894531v30h-31.894531zm0 0"/></g><path d="m368.484375 48.785156h31.890625v30h-31.890625zm0 0" fill="#b4d2d7"/><path d="m432.269531 48.785156h31.890625v30h-31.890625zm0 0" fill="#b4d2d7"/><path d="m368.484375 176.355469h31.890625v30h-31.890625zm0 0" fill="#b4d2d7"/><path d="m432.269531 176.355469h31.890625v30h-31.890625zm0 0" fill="#b4d2d7"/><path d="m304.246094 448.75c0-26.644531-21.601563-48.246094-48.246094-48.246094l-20.015625 48.246094 20.015625 48.25c26.648438 0 48.246094-21.601562 48.246094-48.25zm0 0" fill="#03232e"/><path d="m207.753906 448.75c0 26.648438 21.601563 48.25 48.246094 48.25v-96.496094c-26.648438 0-48.246094 21.601563-48.246094 48.246094zm0 0" fill="#07485e"/></svg>