<svg height="512pt" viewBox="0 0 512 512" width="512pt" xmlns="http://www.w3.org/2000/svg"><path d="m427.019531 0h-68.40625l-20.015625 256 20.015625 256h68.40625zm0 0" fill="#e1ebf0"/><path d="m290.203125 0-20.015625 260.21875 20.015625 251.78125h68.410156v-512zm0 0" fill="#b4d2d7"/><path d="m221.796875 0-20.015625 262.769531 20.015625 249.230469h68.40625v-512zm0 0" fill="#e1ebf0"/><path d="m153.386719 0-20.015625 256 20.015625 256h68.410156v-512zm0 0" fill="#b4d2d7"/><path d="m84.980469 0h68.40625v512h-68.40625zm0 0" fill="#e1ebf0"/><path d="m512 427.019531v-68.40625l-256-20.015625-256 20.015625v68.40625zm0 0" fill="#e1ebf0"/><path d="m512 290.203125-260.21875-20.015625-251.78125 20.015625v68.410156h512zm0 0" fill="#b4d2d7"/><path d="m512 221.796875-262.769531-20.015625-249.230469 20.015625v68.40625h512zm0 0" fill="#e1ebf0"/><path d="m512 153.386719-256-20.015625-256 20.015625v68.410156h512zm0 0" fill="#b4d2d7"/><path d="m0 84.980469h512v68.40625h-512zm0 0" fill="#e1ebf0"/><path d="m427.019531 84.980469h-171.019531l-20.015625 170.160156 20.015625 171.878906h171.019531zm0 0" fill="#ff9f22"/><path d="m84.980469 84.980469h171.019531v342.039062h-171.019531zm0 0" fill="#ffd422"/><path d="m363.285156 148.714844h-107.285156l-20.015625 106.425781 20.015625 108.144531h107.285156zm0 0" fill="#00884f"/><path d="m148.714844 148.714844h107.285156v214.570312h-107.285156zm0 0" fill="#00cc76"/></svg>