<svg height="512pt" viewBox="0 -53 512 511" width="512pt" xmlns="http://www.w3.org/2000/svg"><path d="m480.105469.5h-224.105469l-20.015625 83.800781 244.121094-20.015625zm0 0" fill="#b4d2d7"/><path d="m31.894531.5v63.785156l224.105469 20.015625v-83.800781zm0 0" fill="#e1ebf0"/><path d="m480.105469 64.285156h-224.105469l-20.015625 234.351563 244.121094-20.015625zm0 0" fill="#03232e"/><path d="m31.894531 64.285156v214.335938l224.105469 20.015625v-234.351563zm0 0" fill="#07485e"/><path d="m271.945312 188.34375h160.324219v30h-160.324219zm0 0" fill="#00cc76"/><path d="m79.730469 188.34375h160.324219v30h-160.324219zm0 0" fill="#00ff94"/><path d="m79.730469 124.558594h63.785156v30h-63.785156zm0 0" fill="#00ff94"/><path d="m368.484375 124.558594h63.785156v30h-63.785156zm0 0" fill="#00cc76"/><path d="m480.105469 342.40625v-63.785156h-224.105469l-20.015625 83.800781zm0 0" fill="#87a0af"/><path d="m31.894531 342.40625 224.105469 20.015625v-83.800781h-224.105469zm0 0" fill="#b4d2d7"/><path d="m336.589844 124.558594h-80.589844l-10.007812 15 10.007812 15h80.589844zm0 0" fill="#00cc76"/><path d="m175.410156 124.558594h80.589844v30h-80.589844zm0 0" fill="#00ff94"/><path d="m512 342.40625h-256l-20.015625 31.890625 20.015625 31.894531h256zm0 0" fill="#b4d2d7"/><path d="m0 342.40625h256v63.785156h-256zm0 0" fill="#e1ebf0"/></svg>