<svg height="512pt" viewBox="0 -31 512 511" width="512pt" xmlns="http://www.w3.org/2000/svg"><path d="m512 32.390625h-256l-20.015625 396.308594 62.539063 20.015625h213.476562zm0 0" fill="#e1bb78"/><path d="m202.84375 32.390625-21.257812-31.890625h-181.585938v448.214844h213.476562l42.523438-20.015625v-396.308594zm0 0" fill="#edd7b0"/><path d="m287.894531 123.816406v90.78125h-31.894531l-20.015625 71.667969 20.015625 162.449219h42.523438v-126.070313c37.507812-16.4375 63.777343-53.914062 63.777343-97.414062 0-47.507813-31.328125-87.835938-74.40625-101.414063zm0 0" fill="#b4d2d7"/><path d="m224.105469 214.597656v-90.78125c-43.078125 13.578125-74.40625 53.90625-74.40625 101.414063 0 43.5 26.269531 80.976562 63.777343 97.414062v126.070313h42.523438v-234.117188zm0 0" fill="#e1ebf0"/></svg>