<svg height="512pt" viewBox="0 -31 512 511" width="512pt" xmlns="http://www.w3.org/2000/svg"><path d="m256 448.714844h256v-320.644532l-276.015625-20.015624zm0 0" fill="#03232e"/><path d="m0 128.070312v320.644532h256v-340.660156zm0 0" fill="#07485e"/><path d="m256 .5-20.015625 63.785156 20.015625 63.785156h256v-127.570312zm0 0" fill="#b4d2d7"/><path d="m0 .5h256v127.570312h-256zm0 0" fill="#e1ebf0"/><path d="m47.839844 49.285156h31.890625v30h-31.890625zm0 0" fill="#ff4a4a"/><path d="m111.625 49.285156h31.894531v30h-31.894531zm0 0" fill="#ffd422"/><path d="m175.410156 49.285156h31.894532v30h-31.894532zm0 0" fill="#00cc76"/><path d="m163.507812 273.394531h58.5v30h-58.5zm0 0" fill="#ff9f22"/><path d="m222.824219 332.46875 21.210937 21.214844-41.363281 41.363281-21.210937-21.214844zm0 0" fill="#ff9f22"/><path d="m289.183594 332.46875 41.363281 41.363281-21.214844 21.214844-41.363281-41.363281zm0 0" fill="#ff4a4a"/><path d="m202.671875 181.730469 41.363281 41.363281-21.210937 21.214844-41.363281-41.363282zm0 0" fill="#ff9f22"/><path d="m309.328125 181.730469 21.214844 21.210937-41.363281 41.363282-21.214844-21.210938zm0 0" fill="#ff4a4a"/><path d="m289.992188 273.394531h58.5v30h-58.5zm0 0" fill="#ff4a4a"/><path d="m256 202.277344-20.015625 86.113281 20.015625 86.117187c29.773438 0 53.996094-24.226562 53.996094-54v-64.234374c0-29.773438-24.222656-53.996094-53.996094-53.996094zm0 0" fill="#ff9f22"/><path d="m202.003906 256.277344v64.230468c0 29.777344 24.222656 54 53.996094 54v-172.230468c-29.773438 0-53.996094 24.222656-53.996094 54zm0 0" fill="#ffd422"/></svg>