<svg height="512pt" viewBox="0 0 512 512" width="512pt" xmlns="http://www.w3.org/2000/svg"><path d="m300.242188 210.035156-79.269532 45.105469 291.027344 256.859375v-90.207031zm0 0" fill="#87a0af"/><path d="m210.039062 300.246094 211.753907 211.753906h90.207031l-276.015625-276.015625zm0 0" fill="#b4d2d7"/><path d="m177.457031 0c-49.003906 0-93.367187 19.863281-125.480469 51.976562l6.527344 48.027344 49.609375 8.109375c7.683594-7.683593 18.300781-12.433593 30.027344-12.433593 23.449219 0 42.460937 19.007812 42.460937 42.460937 0 11.726563-4.753906 22.339844-12.4375 30.023437l35.28125 80.507813 99.496094 54.269531c32.113282-32.113281 51.976563-76.476562 51.976563-125.480468 0-98.011719-79.453125-177.460938-177.460938-177.460938zm0 0" fill="#d10050"/><path d="m138.140625 180.601562c-23.453125 0-42.460937-19.011718-42.460937-42.460937 0-11.726563 4.75-22.339844 12.433593-30.027344l-56.136719-56.136719c-32.113281 32.113282-51.976562 76.476563-51.976562 125.484376 0 98.007812 79.449219 177.457031 177.457031 177.457031 49.003907 0 93.371094-19.863281 125.484375-51.976563l-134.777344-134.777344c-7.683593 7.683594-18.296874 12.4375-30.023437 12.4375zm0 0" fill="#ff4a4a"/></svg>