<svg height="512pt" viewBox="0 0 512 512" width="512pt" xmlns="http://www.w3.org/2000/svg"><path d="m479.683594 32.804688h-223.441406v30h193.441406v386.878906h-193.441406v30h223.441406zm0 0" fill="#b4d2d7"/><path d="m62.804688 449.683594v-386.878906h193.4375v-30h-223.4375v446.878906h223.4375v-30zm0 0" fill="#e1ebf0"/><path d="m351.679688 0h-63.785157l-20.015625 256.242188 20.015625 255.757812h63.785157zm0 0" fill="#ff9f22"/><path d="m224.105469 0-20.015625 260.097656 20.015625 251.902344h63.789062v-512zm0 0" fill="#ffd422"/><path d="m160.320312 0h63.785157v512h-63.785157zm0 0" fill="#fff68e"/><path d="m512 351.679688v-63.785157l-256.242188-20.015625-255.757812 20.015625v63.785157zm0 0" fill="#ff9f22"/><path d="m512 224.105469-260.097656-20.015625-251.902344 20.015625v63.789062h512zm0 0" fill="#ffd422"/><path d="m0 160.320312h512v63.785157h-512zm0 0" fill="#fff68e"/><path d="m256 416.390625-20.015625-160.148437 20.015625-160.632813h160.390625v320.78125zm0 0" fill="#00884f"/><path d="m95.609375 95.609375h160.390625v320.78125h-160.390625zm0 0" fill="#00cc76"/><path d="m256 352.65625-20.015625-96.414062 20.015625-96.898438h96.65625v193.3125zm0 0" fill="#b4d2d7"/><path d="m159.34375 159.34375h96.65625v193.3125h-96.65625zm0 0" fill="#e1ebf0"/></svg>