<svg height="512pt" viewBox="0 0 512 512" width="512pt" xmlns="http://www.w3.org/2000/svg"><path d="m512 307.007812v-102.015624h-39.597656c-5.570313-23.628907-14.921875-45.8125-27.378906-65.878907l28.066406-28.0625-72.136719-72.136719-28.066406 28.0625c-20.066407-12.453124-42.246094-21.808593-65.878907-27.375v-39.601562h-51.007812l-20.015625 256 20.015625 256h51.007812v-39.597656c23.628907-5.570313 45.8125-14.921875 65.878907-27.378906l28.0625 28.066406 72.136719-72.136719-28.0625-28.066406c12.453124-20.066407 21.808593-42.246094 27.375-65.878907zm0 0" fill="#b4d2d7"/><path d="m204.992188 0v39.597656c-23.628907 5.570313-45.8125 14.921875-65.878907 27.378906l-28.0625-28.066406-72.136719 72.136719 28.0625 28.066406c-12.453124 20.066407-21.808593 42.246094-27.375 65.878907h-39.601562v102.015624h39.597656c5.570313 23.628907 14.921875 45.8125 27.378906 65.878907l-28.066406 28.0625 72.136719 72.136719 28.066406-28.0625c20.066407 12.453124 42.246094 21.804687 65.878907 27.375v39.601562h51.007812v-512zm0 0" fill="#e1ebf0"/><path d="m184.121094 350.660156-74.484375-94.660156 74.484375-94.660156 23.578125 18.550781-59.886719 76.109375 59.886719 76.109375zm0 0" fill="#07485e"/><path d="m327.878906 350.660156-23.578125-18.550781 59.886719-76.109375-59.886719-76.109375 23.578125-18.550781 74.484375 94.660156zm0 0" fill="#03232e"/><path d="m241 160.339844h30v191.316406h-30zm0 0" fill="#07485e"/></svg>