<svg height="512pt" viewBox="-26 0 512 512" width="512pt" xmlns="http://www.w3.org/2000/svg"><path d="m406.492188 94.195312 21.210937 21.214844-44.570313 44.570313-21.210937-21.214844zm0 0" fill="#b4d2d7"/><path d="m53.058594 94.199219 44.570312 44.570312-21.214844 21.214844-44.570312-44.570313zm0 0" fill="#e1ebf0"/><path d="m395.855469 62.351562 63.691406 63.691407-21.210937 21.214843-63.691407-63.691406zm0 0" fill="#87a0af"/><path d="m63.691406 62.355469 21.210938 21.210937-63.6875 63.691406-21.214844-21.210937zm0 0" fill="#b4d2d7"/><path d="m279.800781 15.011719h-70.042969l20.015626 105.25h50.027343zm0 0" fill="#b4d2d7"/><path d="m179.746094 15.011719h50.027344v105.25h-50.027344zm0 0" fill="#e1ebf0"/><path d="m385.246094 136.660156c-41.53125-41.527344-96.742188-64.398437-155.472656-64.398437l-20.015626 219.871093 20.015626 219.867188c58.730468 0 113.941406-22.871094 155.472656-64.398438 41.527344-41.527343 64.394531-96.742187 64.394531-155.46875 0-58.730468-22.867187-113.945312-64.394531-155.472656zm0 0" fill="#005fe1"/><path d="m74.304688 136.660156c-41.527344 41.527344-64.398438 96.742188-64.398438 155.472656 0 58.726563 22.871094 113.941407 64.398438 155.46875 41.527343 41.527344 96.742187 64.398438 155.46875 64.398438v-439.738281c-58.726563 0-113.941407 22.871093-155.46875 64.398437zm0 0" fill="#69b1e9"/><path d="m209.757812 272.117188 20.015626 181.8125c89.21875 0 161.796874-72.582032 161.796874-161.796876zm0 0" fill="#efe2dd"/><path d="m391.570312 292.132812c0-89.214843-72.582031-161.796874-161.796874-161.796874l-20.015626 161.796874zm0 0" fill="#00cc76"/><path d="m309.839844 0h-80.066406l-10.007813 15.011719 10.007813 14.988281h80.066406zm0 0" fill="#87a0af"/><path d="m149.710938 0h80.0625v30h-80.0625zm0 0" fill="#b4d2d7"/><path d="m229.773438 130.332031c-89.214844 0-161.796876 72.582031-161.796876 161.800781 0 89.214844 72.582032 161.796876 161.796876 161.796876zm0 0" fill="#fff5f5"/><path d="m229.773438 247.105469-20.015626 45.027343 20.015626 45.023438c24.828124 0 45.023437-20.199219 45.023437-45.023438 0-24.828124-20.195313-45.027343-45.023437-45.027343zm0 0" fill="#005fe1"/><path d="m184.75 292.132812c0 24.824219 20.199219 45.023438 45.023438 45.023438v-90.050781c-24.824219 0-45.023438 20.199219-45.023438 45.027343zm0 0" fill="#69b1e9"/></svg>