<svg height="512pt" viewBox="0 0 512 511" width="512pt" xmlns="http://www.w3.org/2000/svg"><path d="m352.164062 160.152344c-25.707031-25.660156-59.847656-39.78125-96.160156-39.78125-.003906 0-.003906 0-.003906 0l-19.980469 326.152344 98.902344-19.976563v-20.160156c0-21.726563 8.175781-42.917969 23.011719-59.671875 22.050781-24.894532 34.195312-56.933594 34.195312-90.214844 0-36.410156-14.191406-70.628906-39.964844-96.347656zm0 0" fill="#ffd422"/><g fill="#fff68e"><path d="m256 120.371094c-.085938 0-.175781 0-.261719 0-75.019531.144531-135.964843 61.292968-135.867187 136.316406.046875 33.292969 12.242187 65.324219 34.34375 90.195312 14.742187 16.589844 22.863281 37.570313 22.863281 59.078126v20.585937l78.921875 19.976563zm0 0"/><path d="m240.792969.5h29.945312v79.902344h-29.945312zm0 0"/><path d="m140.761719 27.425781 39.953125 69.195313-25.933594 14.972656-39.949219-69.195312zm0 0"/><path d="m41.664062 115.734375 69.195313 39.949219-14.972656 25.933594-69.195313-39.953126zm0 0"/><path d="m0 241.761719h79.902344v29.945312h-79.902344zm0 0"/><path d="m96.132812 331.78125 14.972657 25.933594-69.195313 39.953125-14.972656-25.933594zm0 0"/></g><path d="m416.09375 331.371094 69.195312 39.953125-14.972656 25.929687-69.195312-39.953125zm0 0" fill="#ffd422"/><path d="m432.097656 241.292969h79.902344v29.941406h-79.902344zm0 0" fill="#ffd422"/><path d="m470.101562 115.320312 14.96875 25.929688-69.195312 39.953125-14.972656-25.933594zm0 0" fill="#ffd422"/><path d="m370.824219 27.191406 25.929687 14.972656-39.949218 69.195313-25.933594-14.972656zm0 0" fill="#ffd422"/><path d="m300.703125 256.734375c0-24.777344-20.15625-44.9375-44.9375-44.9375s-44.941406 20.160156-44.941406 44.9375c0 19.53125 12.53125 36.183594 29.96875 42.367187v147.421876h29.945312v-147.421876c17.4375-6.179687 29.964844-22.835937 29.964844-42.367187zm-44.9375 14.996094c-8.269531 0-14.996094-6.726563-14.996094-14.996094s6.726563-14.996094 14.996094-14.996094 14.996094 6.726563 14.996094 14.996094-6.726563 14.996094-14.996094 14.996094zm0 0" fill="#ff9f22"/><path d="m256 511.542969h78.925781v-84.996094h-78.925781l-19.976562 42.5zm0 0" fill="#b4d2d7"/><path d="m177.074219 426.546875h78.925781v84.996094h-78.925781zm0 0" fill="#e1ebf0"/></svg>