<svg height="512pt" viewBox="0 -81 512 512" width="512pt" xmlns="http://www.w3.org/2000/svg"><path d="m31.894531 0h30v188.925781h-30zm0 0" fill="#0b799d"/><path d="m450.105469 0h30v188.925781h-30zm0 0" fill="#07485e"/><path d="m480.105469 286.472656-244.121094-20.015625 20.015625 83.800781h224.105469zm0 0" fill="#07485e"/><path d="m31.894531 286.472656v63.785156h224.105469v-83.800781zm0 0" fill="#0b799d"/><path d="m512 158.902344h-256l-20.015625 63.785156 20.015625 63.785156h256zm0 0" fill="#03232e"/><path d="m0 158.902344h256v127.570312h-256zm0 0" fill="#07485e"/><path d="m47.839844 207.6875h31.890625v30h-31.890625zm0 0" fill="#00ff94"/><path d="m111.625 207.6875h31.894531v30h-31.894531zm0 0" fill="#ffd422"/><path d="m368.484375 207.6875h95.675781v30h-95.675781zm0 0" fill="#b4d2d7"/></svg>