<svg height="512pt" viewBox="0 0 512 512" width="512pt" xmlns="http://www.w3.org/2000/svg"><path d="m512 0h-256l-20.015625 256 20.015625 256h256zm0 0" fill="#b4d2d7"/><path d="m0 0h256v512h-256zm0 0" fill="#e1ebf0"/><path d="m256 448.265625h192.265625v-128.175781l-212.28125-20.015625zm0 0" fill="#03232e"/><path d="m63.734375 320.089844v128.175781h192.265625v-148.191406zm0 0" fill="#07485e"/><path d="m256 320.089844h192.265625v-128.179688l-212.28125-20.015625zm0 0" fill="#07485e"/><path d="m256 171.894531-192.265625 20.015625v128.179688h192.265625zm0 0" fill="#0b799d"/><path d="m256 63.734375-20.015625 64.089844 20.015625 64.085937h192.265625v-128.175781zm0 0" fill="#03232e"/><path d="m63.734375 63.734375h192.265625v128.175781h-192.265625zm0 0" fill="#07485e"/><path d="m271.945312 241h128.480469v30h-128.480469zm0 0" fill="#b4d2d7"/><path d="m271.945312 112.824219h128.480469v30h-128.480469zm0 0" fill="#b4d2d7"/><path d="m191.761719 112.824219h48.292969v30h-48.292969zm0 0" fill="#e1ebf0"/><path d="m111.574219 112.824219h48.292969v30h-48.292969zm0 0" fill="#ff4a4a"/><path d="m191.761719 241h48.292969v30h-48.292969zm0 0" fill="#e1ebf0"/><path d="m111.574219 241h48.292969v30h-48.292969zm0 0" fill="#00ff94"/><path d="m191.761719 369.175781h48.292969v30h-48.292969zm0 0" fill="#e1ebf0"/><path d="m111.574219 369.175781h48.292969v30h-48.292969zm0 0" fill="#00ff94"/><path d="m271.945312 369.175781h128.480469v30h-128.480469zm0 0" fill="#b4d2d7"/></svg>