<svg height="512pt" viewBox="0 -35 512 512" width="512pt" xmlns="http://www.w3.org/2000/svg"><path d="m512 0h-256l-20.015625 297.253906 276.015625-20.019531zm0 0" fill="#03232e"/><path d="m0 0v277.234375l256 20.019531v-297.253906zm0 0" fill="#07485e"/><path d="m341.046875 426.070312v-63.789062l-105.0625-20.015625 20.015625 83.804687zm0 0" fill="#87a0af"/><path d="m170.953125 426.070312h85.046875v-83.804687l-85.046875 20.015625zm0 0" fill="#b4d2d7"/><path d="m388.886719 441.066406v-30h-132.886719l-10.007812 15 10.007812 15zm0 0" fill="#b4d2d7"/><path d="m123.113281 411.066406h132.886719v30h-132.886719zm0 0" fill="#e1ebf0"/><path d="m256 277.234375-20.015625 42.527344 20.015625 42.519531h256v-85.046875zm0 0" fill="#b4d2d7"/><path d="m0 277.234375h256v85.046875h-256zm0 0" fill="#e1ebf0"/><path d="m302.523438 47.269531 21.214843 21.214844-34.582031 34.578125-21.210938-21.210938zm0 0" fill="#ff4a4a"/><path d="m287.894531 123.617188h48.902344v30h-48.902344zm0 0" fill="#ff4a4a"/><g fill="#ff9f22"><path d="m175.203125 123.617188h48.902344v30h-48.902344zm0 0"/><path d="m209.476562 47.273438 34.578126 34.578124-21.214844 21.210938-34.578125-34.578125zm0 0"/><path d="m222.839844 174.167969 21.214844 21.210937-34.578126 34.578125-21.214843-21.210937zm0 0"/></g><path d="m289.15625 174.167969 34.582031 34.578125-21.214843 21.210937-34.578126-34.578125zm0 0" fill="#ff4a4a"/><path d="m256 68.117188-20.015625 70.5 20.015625 70.5c25.855469 0 46.894531-21.035157 46.894531-46.890626v-47.214843c0-25.859375-21.039062-46.894531-46.894531-46.894531zm0 0" fill="#ff9f22"/><path d="m209.105469 115.011719v47.214843c0 25.855469 21.039062 46.890626 46.894531 46.890626v-141c-25.855469 0-46.894531 21.035156-46.894531 46.894531zm0 0" fill="#ffd422"/></svg>