<svg height="512pt" viewBox="0 -31 512 511" width="512pt" xmlns="http://www.w3.org/2000/svg"><path d="m512 32.390625h-256l-20.015625 208.164063 20.015625 208.160156h256zm0 0" fill="#e1bb78"/><path d="m202.847656 32.390625-21.261718-31.890625h-181.585938v448.214844h256v-416.324219zm0 0" fill="#edd7b0"/><path d="m256 103.785156-20.015625 136.769532 20.015625 136.765624c75.414062 0 136.769531-61.351562 136.769531-136.769531 0-75.410156-61.355469-136.765625-136.769531-136.765625zm0 0" fill="#212cbb"/><path d="m119.230469 240.554688c0 75.414062 61.355469 136.765624 136.769531 136.765624v-273.535156c-75.414062 0-136.769531 61.355469-136.769531 136.769532zm0 0" fill="#005fe1"/><g fill="#fff5f5"><path d="m271 283.9375v-65.5h-62.839844v30h32.839844v35.5h-32.839844v30h95.679688v-30zm0 0"/><path d="m240.054688 154.652344h31.890624v30h-31.890624zm0 0"/></g></svg>