<svg height="512pt" viewBox="0 1 512 511" width="512pt" xmlns="http://www.w3.org/2000/svg"><path d="m127.054688 336.144531h257.890624v68.800781h30v-98.800781h-143.945312v-68.800781h-30v68.800781h-143.945312v98.800781h30zm0 0" fill="#0b799d"/><path d="m0 384.929688h224.105469v127.570312h-224.105469zm0 0" fill="#07485e"/><path d="m287.894531 384.929688h224.105469v127.570312h-224.105469zm0 0" fill="#03232e"/><path d="m47.839844 433.714844h128.429687v30h-128.429687zm0 0" fill="#e1ebf0"/><path d="m335.730469 433.714844h128.429687v30h-128.429687zm0 0" fill="#b4d2d7"/><path d="m402.882812 124.566406c-1.738281-41.382812-35.824218-74.402344-77.636718-74.402344-13.199219 0-25.625 3.304688-36.511719 9.109376-7.34375-15.882813-18.691406-29.527344-32.734375-39.667969l-20.015625 125.265625 20.015625 112.488281h146.402344c36.671875 0 66.398437-29.730469 66.398437-66.402344 0-36.511719-29.46875-66.128906-65.917969-66.390625zm0 0" fill="#efe2dd"/><path d="m196.835938.5c-55.890626 0-101.199219 45.308594-101.199219 101.203125 0 8.199219.980469 16.167969 2.820312 23.800781-31.363281 5.300782-55.257812 32.578125-55.257812 65.453125 0 36.671875 29.726562 66.398438 66.398437 66.398438h146.402344v-237.75c-16.640625-12.011719-37.070312-19.105469-59.164062-19.105469zm0 0" fill="#fff5f5"/></svg>