<svg height="512pt" viewBox="0 0 512 512" width="512pt" xmlns="http://www.w3.org/2000/svg"><path d="m512 0h-256l-20.015625 256 20.015625 256h256zm0 0" fill="#00884f"/><path d="m0 0h256v512h-256zm0 0" fill="#00cc76"/><path d="m383.578125 128.421875h-127.578125l-20.015625 128.386719 20.015625 126.769531h127.578125zm0 0" fill="#ff9f22"/><g fill="#e1ebf0"><path d="m49.632812 48.6875h30v31.894531h-30zm0 0"/><path d="m113.421875 48.6875h30v31.894531h-30zm0 0"/><path d="m177.210938 48.6875h30v31.894531h-30zm0 0"/><path d="m241 48.6875h30v31.894531h-30zm0 0"/></g><path d="m304.789062 48.6875h30v31.894531h-30zm0 0" fill="#b4d2d7"/><path d="m368.578125 48.6875h30v31.894531h-30zm0 0" fill="#b4d2d7"/><path d="m432.367188 48.6875h30v31.894531h-30zm0 0" fill="#b4d2d7"/><path d="m49.632812 112.476562h30v31.894532h-30zm0 0" fill="#e1ebf0"/><path d="m432.367188 112.476562h30v31.894532h-30zm0 0" fill="#b4d2d7"/><path d="m49.632812 176.265625h30v31.894531h-30zm0 0" fill="#e1ebf0"/><path d="m432.367188 176.265625h30v31.894531h-30zm0 0" fill="#b4d2d7"/><path d="m49.632812 240.054688h30v31.894531h-30zm0 0" fill="#e1ebf0"/><path d="m432.367188 240.054688h30v31.894531h-30zm0 0" fill="#b4d2d7"/><path d="m49.632812 303.84375h30v31.890625h-30zm0 0" fill="#e1ebf0"/><path d="m432.367188 303.84375h30v31.890625h-30zm0 0" fill="#b4d2d7"/><path d="m49.632812 367.628906h30v31.894532h-30zm0 0" fill="#e1ebf0"/><path d="m432.367188 367.628906h30v31.894532h-30zm0 0" fill="#b4d2d7"/><path d="m49.632812 431.417969h30v31.894531h-30zm0 0" fill="#e1ebf0"/><path d="m113.421875 431.417969h30v31.894531h-30zm0 0" fill="#e1ebf0"/><path d="m177.210938 431.417969h30v31.894531h-30zm0 0" fill="#e1ebf0"/><path d="m241 431.417969h30v31.894531h-30zm0 0" fill="#e1ebf0"/><path d="m304.789062 431.417969h30v31.894531h-30zm0 0" fill="#b4d2d7"/><path d="m368.578125 431.417969h30v31.894531h-30zm0 0" fill="#b4d2d7"/><path d="m432.367188 431.417969h30v31.894531h-30zm0 0" fill="#b4d2d7"/><path d="m128.421875 128.421875h127.578125v255.15625h-127.578125zm0 0" fill="#ffd422"/><path d="m319.839844 192.160156h-63.839844l-20.015625 63.839844 20.015625 63.839844h63.839844zm0 0" fill="#b4d2d7"/><path d="m192.160156 192.160156h63.839844v127.679688h-63.839844zm0 0" fill="#e1ebf0"/></svg>