<svg height="512pt" viewBox="0 -102 512 512" width="512pt" xmlns="http://www.w3.org/2000/svg"><g fill="#ffd422"><path d="m49.632812 229.800781h30v78.464844h-30zm0 0"/><path d="m113.421875 229.800781h30v78.464844h-30zm0 0"/><path d="m177.210938 229.800781h30v78.464844h-30zm0 0"/><path d="m241 229.800781h30v78.464844h-30zm0 0"/></g><path d="m304.789062 229.800781h30v78.464844h-30zm0 0" fill="#ff9f22"/><path d="m368.578125 229.800781h30v78.464844h-30zm0 0" fill="#ff9f22"/><path d="m432.367188 229.800781h30v78.464844h-30zm0 0" fill="#ff9f22"/><path d="m512 0h-256l-20.015625 130.214844 20.015625 130.207031h256zm0 0" fill="#00884f"/><path d="m0 0h256v260.421875h-256zm0 0" fill="#00cc76"/><path d="m352.105469 63.789062-20.015625 66.425782 20.015625 66.421875h96.109375v-132.847657zm0 0" fill="#b4d2d7"/><path d="m256.003906 63.789062-20.019531 66.425782 20.019531 66.421875h96.101563v-132.847657zm0 0" fill="#e1ebf0"/><path d="m159.894531 63.789062-20.015625 66.421876 20.015625 66.425781h96.109375v-132.847657zm0 0" fill="#b4d2d7"/><path d="m63.789062 63.789062h96.105469v132.847657h-96.105469zm0 0" fill="#e1ebf0"/></svg>