<svg height="512pt" viewBox="0 0 512 512" width="512pt" xmlns="http://www.w3.org/2000/svg"><path d="m432.699219 149.253906c-2.09375-49.785156-43.097657-89.507812-93.394531-89.507812-15.878907 0-30.828126 3.972656-43.925782 10.957031-8.832031-19.101563-22.484375-35.519531-39.378906-47.71875l-20.015625 154.683594 20.015625 131.332031h176.121094c44.117187 0 79.878906-35.765625 79.878906-79.878906 0-43.925782-35.449219-79.554688-79.300781-79.867188zm0 0" fill="#efe2dd"/><path d="m184.828125 0c-67.238281 0-121.746094 54.507812-121.746094 121.746094 0 9.863281 1.179688 19.449218 3.394531 28.632812-37.730468 6.378906-66.476562 39.191406-66.476562 78.738282 0 44.117187 35.765625 79.882812 79.878906 79.882812h176.121094v-286.015625c-20.019531-14.453125-44.59375-22.984375-71.171875-22.984375zm0 0" fill="#fff5f5"/><path d="m255.996094 512c-50.554688 0-96.042969-22.089844-127.34375-57.113281l68.128906-35.863281zm0 0" fill="#9ee2f8"/><path d="m181.472656 327.847656 1.953125 104.53125c-20.453125 5.609375-38.984375 13.367188-54.773437 22.507813-27.003906-30.21875-43.453125-70.066407-43.453125-113.6875zm0 0" fill="#78b9eb"/><path d="m168.121094 341.199219h-82.921875c0-43.621094 16.449219-83.46875 43.453125-113.6875l74.808594 9.15625zm0 0" fill="#9ee2f8"/><path d="m183.425781 250.023438c-20.453125-5.613282-38.984375-13.371094-54.773437-22.511719 31.300781-35.023438 76.789062-57.109375 127.347656-57.109375zm0 0" fill="#78b9eb"/><path d="m256.003906 512c50.554688 0 96.042969-22.089844 127.34375-57.113281l-68.128906-35.863281zm0 0" fill="#005fe1"/><path d="m330.527344 327.847656-1.953125 104.53125c20.453125 5.609375 38.984375 13.367188 54.773437 22.507813 27.003906-30.21875 43.453125-70.066407 43.453125-113.6875zm0 0" fill="#212cbb"/><path d="m343.878906 341.199219h82.921875c0-43.621094-16.449219-83.46875-43.453125-113.6875l-74.808594 9.15625zm0 0" fill="#005fe1"/><path d="m328.574219 250.023438c20.453125-5.613282 38.984375-13.371094 54.773437-22.511719-31.300781-35.023438-76.789062-57.109375-127.347656-57.109375zm0 0" fill="#212cbb"/><path d="m328.574219 432.378906-85.925781-23.023437 13.351562 102.644531h.003906c26.726563-.003906 55.484375-31.8125 72.570313-79.621094zm0 0" fill="#218adc"/><path d="m256 422.707031h.003906c25.769532 0 50.304688 3.5625 72.570313 9.671875 9.433593-26.402344 15.304687-57.675781 15.304687-91.179687l-101.234375-13.351563zm0 0" fill="#005fe1"/><path d="m242.644531 246.339844 13.355469 94.859375h87.878906c0-33.5-5.875-64.777344-15.308594-91.175781zm0 0" fill="#218adc"/><path d="m328.574219 250.023438c-17.085938-47.8125-45.847657-79.621094-72.574219-79.621094l-13.355469 44.644531 13.355469 44.644531c25.769531 0 50.308594-3.5625 72.574219-9.667968zm0 0" fill="#005fe1"/><path d="m183.429688 432.378906c17.082031 47.8125 45.84375 79.617188 72.566406 79.621094h.003906v-89.292969c-25.769531 0-50.308594 3.566407-72.570312 9.671875zm0 0" fill="#78b9eb"/><path d="m168.121094 341.199219c0 33.503906 5.875 64.78125 15.308594 91.179687 22.261718-6.105468 46.800781-9.667968 72.570312-9.671875v-81.507812zm0 0" fill="#218adc"/><path d="m183.425781 250.023438c22.265625 6.105468 46.800781 9.667968 72.574219 9.667968v-89.289062c-26.726562 0-55.488281 31.808594-72.574219 79.621094zm0 0" fill="#218adc"/><path d="m256 259.691406c-25.769531 0-50.308594-3.5625-72.574219-9.667968-9.433593 26.398437-15.308593 57.675781-15.308593 91.175781h87.882812zm0 0" fill="#78b9eb"/></svg>