<svg height="512pt" viewBox="0 0 512 512" width="512pt" xmlns="http://www.w3.org/2000/svg"><path d="m432.699219 149.253906c-2.09375-49.785156-43.097657-89.507812-93.394531-89.507812-15.878907 0-30.828126 3.972656-43.925782 10.957031-8.832031-19.101563-22.484375-35.519531-39.378906-47.71875l-20.015625 154.683594 20.015625 131.332031h176.121094c44.117187 0 79.878906-35.765625 79.878906-79.878906 0-43.925782-35.449219-79.554688-79.300781-79.867188zm0 0" fill="#efe2dd"/><path d="m184.828125 0c-67.238281 0-121.746094 54.507812-121.746094 121.746094 0 9.863281 1.179688 19.449218 3.394531 28.632812-37.730468 6.378906-66.476562 39.191406-66.476562 78.738282 0 44.117187 35.765625 79.882812 79.878906 79.882812h176.121094v-286.015625c-20.019531-14.453125-44.59375-22.984375-71.171875-22.984375zm0 0" fill="#fff5f5"/><path d="m256 512h155.007812v-127.570312l-175.023437-20.015626zm0 0" fill="#03232e"/><path d="m100.992188 384.429688v127.570312h155.007812v-147.585938zm0 0" fill="#07485e"/><path d="m256 256.859375-20.015625 63.785156 20.015625 63.785157h155.007812v-127.570313zm0 0" fill="#07485e"/><path d="m100.992188 256.859375h155.007812v127.570313h-155.007812zm0 0" fill="#0b799d"/><path d="m331.273438 433.214844h31.894531v30h-31.894531zm0 0" fill="#ffd422"/><path d="m331.273438 305.644531h31.894531v30h-31.894531zm0 0" fill="#ffd422"/><path d="m148.832031 433.214844h31.894531v30h-31.894531zm0 0" fill="#fff68e"/><path d="m148.832031 305.644531h31.894531v30h-31.894531zm0 0" fill="#fff68e"/><path d="m299.382812 463.214844v-30h-43.382812l-10.007812 15.023437 10.007812 14.976563zm0 0" fill="#b4d2d7"/><path d="m299.382812 305.644531h-43.382812l-10.007812 15 10.007812 15h43.382812zm0 0" fill="#b4d2d7"/><g fill="#e1ebf0"><path d="m212.617188 433.214844h43.382812v30h-43.382812zm0 0"/><path d="m212.617188 305.644531h43.382812v30h-43.382812zm0 0"/></g></svg>