<svg height="512pt" viewBox="-53 0 511 512" width="512pt" xmlns="http://www.w3.org/2000/svg"><path d="m112.695312 0-38.242187 78.273438-73.953125 33.921874v399.804688h202.84375v-512zm0 0" fill="#fff5f5"/><path d="m203.34375 0h202.847656v512h-202.847656zm0 0" fill="#efe2dd"/><path d="m131.46875 382.554688-74.484375-94.660157 74.484375-94.660156 23.574219 18.550781-59.886719 76.109375 59.886719 76.109375zm0 0" fill="#07485e"/><path d="m275.222656 382.554688-23.574218-18.550782 59.882812-76.109375-59.882812-76.109375 23.574218-18.550781 74.484375 94.660156zm0 0" fill="#03232e"/><path d="m188.34375 192.234375h30v191.316406h-30zm0 0" fill="#07485e"/><path d="m.5 112.195312h112.195312v-112.195312zm0 0" fill="#cdbfba"/></svg>