<svg height="512pt" viewBox="0 0 512 512" width="512pt" xmlns="http://www.w3.org/2000/svg"><path d="m256 448.214844h256v-320.644532l-276.015625-20.015624zm0 0" fill="#03232e"/><path d="m0 127.570312v320.644532h256v-340.660156zm0 0" fill="#07485e"/><path d="m256 0-20.015625 63.785156 20.015625 63.785156h256v-127.570312zm0 0" fill="#b4d2d7"/><path d="m0 0h256v127.570312h-256zm0 0" fill="#e1ebf0"/><path d="m47.839844 48.785156h31.890625v30h-31.890625zm0 0" fill="#ff4a4a"/><path d="m111.625 48.785156h31.894531v30h-31.894531zm0 0" fill="#ffd422"/><path d="m175.410156 48.785156h31.894532v30h-31.894532zm0 0" fill="#00cc76"/><path d="m342.710938 192.417969h-86.710938l-20.015625 182.5 20.015625 137.082031c85.15625-32.058594 141.535156-113.527344 141.535156-204.515625v-60.242187c-27-6.582032-48.242187-27.824219-54.824218-54.824219zm0 0" fill="#005fe1"/><path d="m169.289062 192.417969c-6.582031 27-27.824218 48.242187-54.824218 54.824219v60.242187c0 90.988281 56.378906 172.457031 141.535156 204.515625v-319.582031zm0 0" fill="#5aaae7"/><path d="m241 349.816406h30v56.441406h-30zm0 0" fill="#03232e"/><path d="m256 283.316406-20.015625 41.992188 20.015625 41.996094c23.191406 0 41.996094-18.800782 41.996094-41.992188 0-23.195312-18.804688-41.996094-41.996094-41.996094zm0 0" fill="#03232e"/><path d="m214.003906 325.3125c0 23.191406 18.804688 41.992188 41.996094 41.992188v-83.988282c-23.191406 0-41.996094 18.800782-41.996094 41.996094zm0 0" fill="#07485e"/></svg>