<svg height="512pt" viewBox="0 0 512 512" width="512pt" xmlns="http://www.w3.org/2000/svg"><path d="m512 425.429688-94.71875-20.015626 20.015625 106.46875h74.703125zm0 0" fill="#ff4a4a"/><path d="m235.984375 405.414062 20.015625 106.46875h181.296875v-106.46875zm0 0" fill="#ff9f22"/><path d="m54.6875 405.414062 20.015625 106.46875h181.296875v-106.46875zm0 0" fill="#d10050"/><path d="m0 425.429688v86.453124h74.703125v-106.46875zm0 0" fill="#ff4a4a"/><path d="m512 338.976562-180.050781-20.015624 20.015625 106.46875h160.035156zm0 0" fill="#d10050"/><path d="m140.019531 318.960938 20.015625 106.46875h191.929688v-106.46875zm0 0" fill="#ff4a4a"/><path d="m0 338.976562v86.453126h160.035156v-106.46875zm0 0" fill="#ff9f22"/><path d="m512 252.519531h-74.703125l-20.015625 43.226563 20.015625 43.230468h74.703125zm0 0" fill="#ff4a4a"/><path d="m256 252.519531-20.015625 43.226563 20.015625 43.230468h181.296875v-86.457031zm0 0" fill="#ff9f22"/><path d="m74.703125 252.519531-20.015625 43.226563 20.015625 43.230468h181.296875v-86.457031zm0 0" fill="#d10050"/><path d="m0 252.519531h74.703125v86.457031h-74.703125zm0 0" fill="#ff4a4a"/><path d="m256 0-20.015625 176.105469 20.015625 176.105469c77.269531 0 139.910156-62.640626 139.910156-139.910157 0-106.351562-139.90625-212.29687475-139.910156-212.300781zm0 0" fill="#ffd422"/><path d="m256 0s-139.910156 105.949219-139.910156 212.300781c0 77.269531 62.640625 139.910157 139.910156 139.910157zm0 0" fill="#fff68e"/><path d="m256 136.347656-20.015625 84.035156 20.015625 61.90625c32.015625 0 57.972656-25.953124 57.972656-57.972656 0-44.066406-57.96875-87.964844-57.972656-87.96875zm0 0" fill="#ff4a4a"/><path d="m256 136.347656s-57.972656 43.902344-57.972656 87.96875c0 32.015625 25.957031 57.972656 57.972656 57.972656zm0 0" fill="#ff9f22"/></svg>