<svg height="512pt" viewBox="-91 0 512 512" width="512pt" xmlns="http://www.w3.org/2000/svg"><path d="m165.476562 0-10.007812 15 10.007812 15c50.773438 0 92.078126 41.308594 92.078126 92.078125v119.328125h30v-119.328125c0-67.3125-54.765626-122.078125-122.078126-122.078125zm0 0" fill="#b4d2d7"/><path d="m43.398438 122.078125v119.328125h30v-119.328125c0-50.769531 41.304687-92.078125 92.078124-92.078125v-30c-67.316406 0-122.078124 54.765625-122.078124 122.078125zm0 0" fill="#e1ebf0"/><path d="m330.953125 211.382812h-165.476563l-20.015624 150.308594 20.015624 150.308594h165.476563zm0 0" fill="#ff9f22"/><path d="m0 211.382812h165.476562v300.617188h-165.476562zm0 0" fill="#ffd422"/><path d="m150.476562 369.425781h30v69.308594h-30zm0 0" fill="#03232e"/><path d="m165.476562 390.835938c25.054688 0 45.363282-20.308594 45.363282-45.363282 0-25.054687-20.308594-45.363281-45.363282-45.363281l-20.015624 45.363281zm0 0" fill="#03232e"/><path d="m120.113281 345.472656c0 25.054688 20.308594 45.363282 45.363281 45.363282v-90.726563c-25.054687 0-45.363281 20.308594-45.363281 45.363281zm0 0" fill="#07485e"/></svg>