<svg height="512pt" viewBox="0 0 512 512" width="512pt" xmlns="http://www.w3.org/2000/svg"><path d="m256 163.652344-20.015625 92.347656 20.015625 92.347656c50.921875 0 92.347656-41.425781 92.347656-92.347656s-41.425781-92.347656-92.347656-92.347656zm0 0" fill="#87a0af"/><path d="m163.652344 256c0 50.921875 41.425781 92.347656 92.347656 92.347656v-184.695312c-50.921875 0-92.347656 41.425781-92.347656 92.347656zm0 0" fill="#b4d2d7"/><path d="m512 299.058594v-86.117188l-46.4375-13.5c-4.929688-18.25-12.175781-35.558594-21.417969-51.578125l23.320313-42.433593-60.894532-60.894532-42.433593 23.320313c-16.019531-9.242188-33.332031-16.488281-51.578125-21.417969l-13.5-46.4375h-43.058594l-20.015625 78 20.015625 55.652344c67.464844 0 122.347656 54.882812 122.347656 122.347656s-54.882812 122.347656-122.347656 122.347656l-20.015625 52.65625 20.015625 80.996094h43.058594l13.5-46.4375c18.25-4.929688 35.558594-12.175781 51.578125-21.417969l42.433593 23.320313 60.894532-60.894532-23.320313-42.433593c9.242188-16.019531 16.484375-33.332031 21.417969-51.578125zm0 0" fill="#b4d2d7"/><path d="m133.652344 256c0-67.464844 54.882812-122.347656 122.347656-122.347656v-133.652344h-43.058594l-13.5 46.4375c-18.25 4.929688-35.558594 12.175781-51.578125 21.417969l-42.433593-23.320313-60.894532 60.890625 23.320313 42.4375c-9.242188 16.019531-16.484375 33.328125-21.417969 51.578125l-46.4375 13.5v86.117188l46.4375 13.5c4.929688 18.25 12.175781 35.558594 21.417969 51.578125l-23.320313 42.433593 60.894532 60.894532 42.433593-23.320313c16.019531 9.242188 33.332031 16.484375 51.578125 21.417969l13.5 46.4375h43.058594v-133.652344c-67.464844 0-122.347656-54.882812-122.347656-122.347656zm0 0" fill="#e1ebf0"/></svg>