<svg height="512pt" viewBox="-144 0 512 512" width="512pt" xmlns="http://www.w3.org/2000/svg"><path d="m124.394531 204.476562h-30v-72.109374c0-35.835938 29.152344-64.988282 64.988281-64.988282 19.292969 0 34.988282-15.695312 34.988282-34.988281v-32.390625h30v32.386719c0 35.835937-29.152344 64.992187-64.988282 64.992187-19.292968 0-34.988281 15.695313-34.988281 34.988282zm0 0" fill="#07485e"/><path d="m109.394531 512c60.414063 0 109.390625-48.976562 109.390625-109.394531v-107.308594l-129.40625-20.019531zm0 0" fill="#87a0af"/><path d="m0 295.296875v107.308594c0 60.417969 48.976562 109.394531 109.390625 109.394531v-236.722656zm0 0" fill="#b4d2d7"/><path d="m109.394531 163.804688-20.015625 68.523437 20.015625 62.96875h109.390625v-22.101563c0-60.414062-48.976562-109.390624-109.390625-109.390624zm0 0" fill="#b4d2d7"/><path d="m109.394531 163.804688c-60.417969 0-109.394531 48.976562-109.394531 109.390624v22.101563h109.394531zm0 0" fill="#e1ebf0"/></svg>