<svg height="512pt" viewBox="-99 0 512 512" width="512pt" xmlns="http://www.w3.org/2000/svg"><path d="m156.605469 512h156.605469v-320.632812l-176.621094-20.015626zm0 0" fill="#b4d2d7"/><path d="m0 191.367188v320.632812h156.605469v-340.648438zm0 0" fill="#e1ebf0"/><path d="m156.605469 191.367188h156.605469v-63.789063l-176.621094-20.015625zm0 0" fill="#87a0af"/><path d="m156.605469 107.5625-156.605469 20.015625v63.789063h156.605469zm0 0" fill="#b4d2d7"/><path d="m156.605469 127.578125h156.605469v-63.789063l-176.621094-20.015624zm0 0" fill="#b4d2d7"/><path d="m156.605469 43.773438-156.605469 20.015624v63.789063h156.605469zm0 0" fill="#e1ebf0"/><path d="m200.59375 339.003906c0-24.292968-19.695312-43.988281-43.988281-43.988281l-20.015625 43.988281 20.015625 43.988282c24.292969 0 43.988281-19.695313 43.988281-43.988282zm0 0" fill="#607882"/><path d="m112.617188 339.003906c0 24.292969 19.695312 43.988282 43.988281 43.988282v-87.976563c-24.292969 0-43.988281 19.695313-43.988281 43.988281zm0 0" fill="#87a0af"/><path d="m265.367188 433.226562h-108.761719l-10.007813 15 10.007813 15h108.761719zm0 0" fill="#87a0af"/><path d="m47.84375 433.226562h108.761719v30h-108.761719zm0 0" fill="#b4d2d7"/><path d="m156.605469 0-20.015625 31.894531 20.015625 31.894531h156.605469v-63.789062zm0 0" fill="#87a0af"/><path d="m0 0h156.605469v63.789062h-156.605469zm0 0" fill="#b4d2d7"/></svg>