<svg height="512pt" viewBox="0 -31 512 511" width="512pt" xmlns="http://www.w3.org/2000/svg"><path d="m256 448.714844h256v-320.644532l-276.015625-20.015624zm0 0" fill="#03232e"/><path d="m0 128.070312v320.644532h256v-340.660156zm0 0" fill="#07485e"/><path d="m256 .5-20.015625 63.785156 20.015625 63.785156h256v-127.570312zm0 0" fill="#b4d2d7"/><path d="m0 .5h256v127.570312h-256zm0 0" fill="#e1ebf0"/><path d="m47.839844 49.285156h31.890625v30h-31.890625zm0 0" fill="#ff4a4a"/><path d="m111.625 49.285156h31.894531v30h-31.894531zm0 0" fill="#ffd422"/><path d="m175.410156 49.285156h31.894532v30h-31.894532zm0 0" fill="#00cc76"/><path d="m271.945312 241.5h175.410157v30h-175.410157zm0 0" fill="#00cc76"/><path d="m64.644531 241.5h175.410157v30h-175.410157zm0 0" fill="#00ff94"/><path d="m383.570312 177.714844h63.785157v30h-63.785157zm0 0" fill="#00cc76"/><path d="m446.410156 305.285156h-190.410156l-20.015625 46.894532 20.015625 46.890624h190.410156zm0 0" fill="#efe2dd"/><path d="m351.679688 177.714844h-95.679688l-10.007812 14.753906 10.007812 15.246094h95.679688zm0 0" fill="#00cc76"/><path d="m64.644531 177.714844h63.785157v30h-63.785157zm0 0" fill="#00ff94"/><path d="m160.320312 177.714844h95.679688v30h-95.679688zm0 0" fill="#00ff94"/><path d="m143.519531 305.285156-20.015625 46.894532 20.015625 46.890624h112.480469v-93.785156zm0 0" fill="#fff5f5"/><path d="m65.589844 305.285156h77.929687v93.785156h-77.929687zm0 0" fill="#ffd422"/></svg>