<svg height="512pt" viewBox="0 0 512 512" width="512pt" xmlns="http://www.w3.org/2000/svg"><path d="m480.105469 106.308594h-224.105469l-20.015625 83.800781 244.121094-20.015625zm0 0" fill="#b4d2d7"/><path d="m31.894531 106.308594v63.785156l224.105469 20.015625v-83.800781zm0 0" fill="#e1ebf0"/><path d="m480.105469 170.09375h-224.105469l-20.015625 234.351562 244.121094-20.015624zm0 0" fill="#03232e"/><path d="m31.894531 170.09375v214.335938l224.105469 20.015624v-234.351562zm0 0" fill="#07485e"/><path d="m480.105469 448.214844v-63.785156h-224.105469l-20.015625 83.800781zm0 0" fill="#87a0af"/><path d="m31.894531 448.214844 224.105469 20.015625v-83.800781h-224.105469zm0 0" fill="#b4d2d7"/><path d="m512 448.214844h-256l-20.015625 31.890625 20.015625 31.894531h256zm0 0" fill="#b4d2d7"/><path d="m0 448.214844h256v63.785156h-256zm0 0" fill="#e1ebf0"/><path d="m342.710938 0h-86.710938l-20.015625 182.5 20.015625 137.082031c85.15625-32.058593 141.535156-113.527343 141.535156-204.519531v-60.238281c-27-6.582031-48.242187-27.824219-54.824218-54.824219zm0 0" fill="#005fe1"/><path d="m169.289062 0c-6.582031 27-27.824218 48.242188-54.824218 54.824219v60.238281c0 90.992188 56.378906 172.460938 141.535156 204.519531v-319.582031zm0 0" fill="#5aaae7"/><path d="m241 157.394531h30v56.445313h-30zm0 0" fill="#03232e"/><path d="m256 90.894531-20.015625 41.996094 20.015625 41.996094c23.191406 0 41.996094-18.800781 41.996094-41.996094 0-23.191406-18.804688-41.996094-41.996094-41.996094zm0 0" fill="#03232e"/><path d="m214.003906 132.890625c0 23.195313 18.804688 41.996094 41.996094 41.996094v-83.992188c-23.191406 0-41.996094 18.804688-41.996094 41.996094zm0 0" fill="#07485e"/></svg>